<?xml version="1.0" standalone="no"?>
<!DOCTYPE svg PUBLIC "-//W3C//DTD SVG 20010904//EN"
 "http://www.w3.org/TR/2001/REC-SVG-20010904/DTD/svg10.dtd">
<svg version="1.0" xmlns="http://www.w3.org/2000/svg"
 width="1042.000000pt" height="1042.000000pt" viewBox="0 0 1042.000000 1042.000000"
 preserveAspectRatio="xMidYMid meet">
<metadata>
Created by potrace 1.14, written by Peter Selinger 2001-2017
</metadata>
<g transform="translate(0.000000,1042.000000) scale(0.100000,-0.100000)"
fill="#000000" stroke="none">
<path d="M7516 9757 c-39 -59 -49 -110 -50 -257 -1 -136 1 -150 28 -220 50
-134 94 -206 164 -271 l65 -61 -2 -89 c-2 -100 26 -215 81 -324 40 -78 99
-135 419 -402 145 -121 276 -233 291 -249 67 -72 94 -228 60 -349 -10 -38 -31
-115 -46 -170 -15 -55 -43 -148 -63 -208 -20 -59 -33 -111 -29 -115 4 -4 41
-7 81 -7 86 0 98 8 176 119 39 56 50 65 55 50 26 -82 74 -154 102 -154 35 1
82 59 102 128 l13 42 27 -48 c58 -101 148 -157 242 -150 64 5 68 23 26 115
-21 43 -56 148 -80 233 -41 148 -43 161 -43 292 l0 136 35 50 c22 32 103 106
215 198 204 167 378 319 447 390 56 59 121 177 142 259 18 65 21 180 7 217 -8
22 -2 29 53 73 69 54 137 149 182 255 25 58 28 80 32 210 4 149 -5 222 -36
287 -28 59 -56 43 -111 -63 -32 -60 -147 -198 -206 -246 -45 -37 -268 -196
-470 -336 -228 -157 -246 -172 -292 -234 l-37 -51 -12 64 c-22 115 -73 222
-133 271 -106 90 -301 66 -415 -50 -49 -51 -44 -75 23 -97 44 -14 49 -19 55
-53 3 -20 6 -57 6 -81 l0 -44 -30 39 c-17 22 -41 48 -54 59 -88 77 -190 151
-386 285 -124 84 -243 167 -265 184 -144 113 -253 238 -294 339 -26 63 -50 74
-75 34z"/>
<path d="M1701 8070 c-48 -22 -583 -447 -826 -656 -198 -170 -442 -409 -466
-456 -36 -70 -20 -144 46 -208 42 -41 104 -51 170 -26 121 47 609 404 1012
743 157 131 189 153 222 153 38 0 61 -27 271 -320 101 -140 402 -554 669 -920
551 -754 594 -806 745 -880 82 -42 95 -45 185 -48 221 -9 305 35 1136 601 477
325 1069 745 1201 854 30 23 60 43 67 43 13 0 70 -60 297 -315 l134 -150 -340
-6 c-369 -7 -527 -21 -522 -47 6 -32 65 -54 161 -59 81 -5 411 -5 643 -1 73 2
89 -1 145 -29 35 -18 84 -49 108 -70 42 -36 204 -223 198 -229 -1 -2 -59 6
-129 16 -318 47 -438 55 -843 55 -334 0 -423 -4 -615 -23 -124 -13 -258 -26
-299 -29 -78 -6 -111 -25 -111 -62 0 -44 11 -45 346 -32 422 18 789 3 1401
-54 144 -14 286 -25 316 -25 73 0 116 -16 123 -46 8 -31 -3 -44 -67 -79 -28
-15 -80 -50 -116 -77 -132 -99 -299 -165 -478 -187 -49 -6 -288 -16 -530 -21
-242 -6 -624 -19 -850 -30 -225 -11 -451 -20 -500 -20 -105 0 -135 -13 -135
-60 0 -57 20 -61 260 -50 364 17 1653 29 1667 16 17 -15 -425 -346 -477 -357
-19 -4 -150 -12 -290 -19 -407 -17 -784 -49 -1665 -141 -406 -42 -425 -46
-425 -91 0 -17 12 -18 183 -18 376 0 1787 61 1956 84 32 5 27 -2 -95 -127
-100 -102 -138 -148 -165 -202 -54 -108 -64 -112 -379 -124 -858 -36 -1408
-63 -1427 -71 -23 -10 -32 -52 -15 -76 11 -16 846 -27 1092 -14 107 5 267 19
355 30 257 31 298 10 330 -170 22 -123 49 -167 213 -342 29 -32 50 -63 47 -69
-5 -8 -93 -9 -304 -4 -376 9 -1188 -19 -1210 -41 -8 -8 34 -47 64 -60 48 -20
575 -36 1055 -32 397 3 427 4 456 22 19 12 39 17 55 13 22 -6 595 -544 587
-552 -2 -2 -55 1 -118 7 -63 5 -196 7 -295 4 -286 -9 -968 -57 -995 -70 -28
-13 -38 -49 -19 -72 11 -14 51 -15 318 -9 527 11 1025 42 1081 69 13 6 29 21
35 33 11 21 28 7 326 -265 271 -246 315 -290 311 -310 l-5 -24 -121 7 c-118 7
-1166 -10 -1436 -23 l-135 -7 -3 -29 c-2 -16 0 -32 5 -37 18 -18 431 -40 763
-40 356 0 548 10 803 41 199 25 228 25 280 -1 48 -24 107 -77 107 -96 0 -28
-123 -185 -167 -213 -56 -36 -45 -34 -363 -70 -146 -17 -425 -51 -620 -76
-195 -25 -394 -49 -442 -53 -48 -3 -92 -11 -99 -18 -6 -6 -14 -26 -18 -45 l-7
-33 -59 55 c-32 30 -383 366 -781 745 -453 433 -743 702 -777 723 -105 63
-185 51 -276 -40 -50 -50 -276 -353 -969 -1298 -184 -250 -344 -466 -357 -479
-43 -44 -66 -35 -291 111 -366 236 -744 462 -1144 683 -107 59 -203 115 -212
123 -27 23 -22 56 19 109 20 26 192 253 382 503 618 816 843 1092 1210 1481
81 85 156 173 167 195 30 61 26 147 -10 209 -50 88 -772 795 -1202 1176 -306
272 -857 723 -964 788 -76 46 -160 10 -195 -84 -32 -82 -45 -66 554 -670 724
-730 1195 -1215 1220 -1256 42 -68 43 -67 -222 -331 -698 -697 -1144 -1302
-1428 -1943 -51 -113 -54 -125 -54 -202 0 -67 4 -86 21 -109 35 -48 66 -63
149 -75 44 -6 102 -22 130 -35 27 -13 129 -85 225 -160 332 -258 630 -471
1194 -853 181 -123 347 -232 370 -242 56 -25 161 -26 199 0 38 25 50 45 76
123 25 74 69 142 176 268 39 47 215 276 391 508 614 815 699 926 726 945 26
19 28 19 53 3 14 -9 308 -299 653 -645 345 -345 717 -710 827 -812 110 -101
252 -236 315 -301 130 -132 190 -169 294 -176 57 -4 61 -7 120 -67 53 -55 68
-64 109 -70 66 -10 117 11 229 97 563 429 1002 865 1317 1306 l71 99 0 72 c0
70 -2 74 -42 126 -23 29 -51 58 -62 63 -12 6 -46 21 -76 36 -78 36 -115 70
-225 206 -268 332 -596 670 -890 917 -494 414 -596 606 -465 868 128 253 351
481 1013 1036 349 292 327 277 415 289 111 15 160 50 201 140 34 74 25 149
-26 223 -60 86 -788 772 -1143 1077 -200 171 -278 225 -357 245 -104 27 -184
1 -379 -121 -363 -226 -742 -486 -1082 -743 -336 -253 -412 -304 -546 -371
-167 -81 -262 -98 -377 -64 -154 45 -250 142 -641 645 -500 645 -1098 1322
-1213 1374 -60 28 -131 30 -184 5z m5021 -6477 c-44 -49 -183 -190 -309 -315
-173 -172 -235 -228 -253 -228 -18 0 -41 19 -84 68 -33 37 -133 139 -222 227
-89 88 -182 183 -208 211 l-46 51 263 0 c284 0 478 12 754 48 98 12 180 23
182 24 2 0 -33 -38 -77 -86z"/>
</g>
</svg>
